<?xml version="1.0" encoding="utf-8"?>
<!-- Generator: Adobe Illustrator 15.0.0, SVG Export Plug-In . SVG Version: 6.00 Build 0)  -->
<!DOCTYPE svg PUBLIC "-//W3C//DTD SVG 1.1//EN" "http://www.w3.org/Graphics/SVG/1.1/DTD/svg11.dtd">
<svg version="1.1" id="heart_-_front_1_" xmlns="http://www.w3.org/2000/svg" xmlns:xlink="http://www.w3.org/1999/xlink" x="0px"
	 y="0px" width="89px" height="81px" viewBox="0 0 89 81" enable-background="new 0 0 89 81" xml:space="preserve">
<g id="heart_-_front">
	<g>
		<path fill-rule="evenodd" clip-rule="evenodd" fill="#FFFFFF" d="M85.344,23.686c-6.367-11.146-21.033-13.942-32.121-7.473
			l-6.482,3.769l-3.775-6.583C39.781,7.824,35.141,3.112,29.418,1.579C23.695,0.045,17.387,0.69,11.843,3.925
			C0.755,10.395-2.052,24.642,4.304,35.793l24.767,43.714c0.558,0.978,1.802,1.318,2.78,0.761c0.006-0.004,0.013-0.007,0.019-0.011
			c14.981-8.74,29.963-17.494,44.944-26.234C87.902,47.553,91.713,34.832,85.344,23.686z"/>
	</g>
</g>
</svg>
